<svg xmlns="http://www.w3.org/2000/svg" viewBox="0 0 512 512">
  <defs>
    <linearGradient id="gradient" x1="0%" y1="0%" x2="100%" y2="100%">
      <stop offset="0%" style="stop-color:#f43f5e;stop-opacity:1" />
      <stop offset="100%" style="stop-color:#fbbf24;stop-opacity:1" />
    </linearGradient>
  </defs>
  
  <!-- Stylized "S" for Sakeenah -->
  <path d="M 320,140 C 320,100 290,70 250,70 C 210,70 180,100 160,130 L 200,160 C 210,145 225,130 250,130 C 265,130 280,145 280,160 C 280,175 270,185 250,195 L 200,225 C 170,245 150,270 150,310 C 150,360 185,400 240,400 L 245,400 C 285,400 315,375 330,345 L 290,315 C 280,330 270,340 245,340 C 225,340 210,325 210,305 C 210,290 220,280 235,270 L 290,235 C 315,220 320,195 320,170 Z" 
        fill="url(#gradient)" 
        stroke="url(#gradient)" 
        stroke-width="8" 
        stroke-linejoin="round"/>
  
  <!-- Decorative Islamic geometric elements -->
  <g fill="none" stroke="url(#gradient)" stroke-width="4" opacity="0.3">
    <circle cx="256" cy="256" r="220"/>
    <circle cx="256" cy="256" r="200"/>
  </g>
  
  <!-- Small decorative stars -->
  <g fill="url(#gradient)" opacity="0.5">
    <circle cx="120" cy="120" r="8"/>
    <circle cx="392" cy="120" r="8"/>
    <circle cx="120" cy="392" r="8"/>
    <circle cx="392" cy="392" r="8"/>
  </g>
</svg>
